<svg width="23"  viewBox="0 0 23 24" fill="none" xmlns="http://www.w3.org/2000/svg">
<path d="M11.21 14.0325H8.3846C8.2174 14.0325 8.082 14.1679 8.082 14.3351V18.7219C8.082 18.8891 8.2174 19.0245 8.3846 19.0245H11.21C11.3772 19.0245 11.5124 18.8891 11.5124 18.7219V14.3349C11.5124 14.1677 11.377 14.0325 11.21 14.0325Z" fill="#787878"/>
<path d="M15.6154 4.97559H12.79C12.6228 4.97559 12.4874 5.11099 12.4874 5.27819V18.7218C12.4874 18.889 12.6228 19.0244 12.79 19.0244H15.6154C15.7826 19.0244 15.918 18.889 15.918 18.7218V5.27819C15.918 5.11099 15.7826 4.97559 15.6154 4.97559Z" fill="#787878"/>
<path d="M20.0434 9.05981H17.218C17.0508 9.05981 16.9154 9.19521 16.9154 9.36241V18.7218C16.9154 18.889 17.0508 19.0244 17.218 19.0244H20.0432C20.2104 19.0244 20.3458 18.889 20.3458 18.7218V9.36241C20.3458 9.19541 20.2104 9.05981 20.0434 9.05981Z" fill="#787878"/>
<path d="M6.78199 9.05981H3.95659C3.78939 9.05981 3.65399 9.19521 3.65399 9.36241V18.7218C3.65399 18.889 3.78939 19.0244 3.95659 19.0244H6.78199C6.94919 19.0244 7.08459 18.889 7.08459 18.7218V9.36241C7.08459 9.19541 6.94919 9.05981 6.78199 9.05981Z" fill="#787878"/>
</svg>
