<svg width="23" viewBox="0 0 23 24" fill="none" xmlns="http://www.w3.org/2000/svg">
	<g clip-path="url(#clip0)">
		<g clip-path="url(#clip1)">
			<path d="M5.26729 5.26524C5.26729 4.51074 5.56701 3.78715 6.10052 3.25364C6.63403 2.72013 7.35762 2.42041 8.11212 2.42041C8.86661 2.42041 9.5902 2.72013 10.1237 3.25364C10.6572 3.78715 10.9569 4.51074 10.9569 5.26524C10.9569 6.01973 10.6572 6.74333 10.1237 7.27683C9.5902 7.81034 8.86661 8.11007 8.11212 8.11007C7.35762 8.11007 6.63403 7.81034 6.10052 7.27683C5.56701 6.74333 5.26729 6.01973 5.26729 5.26524Z" fill="#787878" />
			<path d="M14.9098 7.51493L14.9696 7.56044C15.5731 8.0078 16.3291 8.19828 17.0725 8.09031C17.816 7.98234 18.4865 7.58468 18.9379 6.98413C19.3892 6.38358 19.5846 5.62888 19.4816 4.88474C19.3785 4.1406 18.9853 3.46743 18.3877 3.01215C17.7902 2.55686 17.0368 2.35642 16.292 2.45457C15.5472 2.55272 14.8714 2.94148 14.4122 3.53603C13.953 4.13057 13.7476 4.88262 13.8408 5.62806C13.934 6.37349 14.3183 7.05179 14.9098 7.51493Z" fill="#787878" />
			<path d="M9.91493 9.53392C10.0936 9.19562 10.3386 8.89683 10.6354 8.65542C10.9322 8.41402 11.2747 8.23496 11.6423 8.12896C12.0099 8.02295 12.3951 7.99219 12.7749 8.0385C13.1546 8.0848 13.5211 8.20724 13.8525 8.39847C14.1839 8.5897 14.4732 8.84581 14.7033 9.15146C14.9334 9.45712 15.0995 9.80604 15.1916 10.1774C15.2838 10.5487 15.3 10.9348 15.2395 11.3125C15.179 11.6903 15.0429 12.052 14.8393 12.3759C14.4478 12.9991 13.8299 13.4463 13.1156 13.6235C12.4012 13.8008 11.646 13.6942 11.0085 13.3263C10.3711 12.9584 9.90099 12.3578 9.69706 11.6506C9.49313 10.9434 9.57122 10.1847 9.91493 9.53392Z" fill="#787878" />
			<path d="M4.55608 9.53247H8.35392C8.19745 9.97769 8.11211 10.457 8.11211 10.9549C8.11211 12.0473 8.52319 13.0458 9.19883 13.7997H8.82332C8.08997 13.7996 7.37452 14.0261 6.77488 14.4483C6.17524 14.8705 5.72072 15.4676 5.47353 16.1581C4.99608 15.9663 4.54903 15.7061 4.14642 15.3857C3.07677 14.5251 2.42245 13.2535 2.42245 11.6661C2.42245 11.1002 2.64725 10.5575 3.04738 10.1574C3.44751 9.75726 3.9902 9.53247 4.55608 9.53247Z" fill="#787878" />
			<path d="M15.9358 13.7997C17.4791 13.7997 18.7934 14.7826 19.2842 16.1581C19.7678 15.9604 20.2159 15.7029 20.6127 15.3857C21.6824 14.5251 22.3367 13.2535 22.3367 11.6661C22.3367 11.1002 22.1119 10.5575 21.7118 10.1574C21.3116 9.75726 20.7689 9.53247 20.2031 9.53247H16.4052C16.5617 9.97769 16.647 10.457 16.647 10.9549C16.6483 12.0048 16.2613 13.0181 15.5603 13.7997H15.9358Z" fill="#787878" />
			<path d="M17.9083 16.5422C18.0121 16.7925 18.069 17.0685 18.069 17.3558C18.069 18.9432 17.4161 20.2148 16.345 21.0754C15.291 21.9217 13.8772 22.3342 12.3794 22.3342C10.8816 22.3342 9.46768 21.9217 8.41367 21.0754C7.34402 20.2148 6.6897 18.9432 6.6897 17.3558C6.68895 17.0754 6.74363 16.7976 6.85059 16.5384C6.95755 16.2792 7.11468 16.0437 7.31295 15.8454C7.51123 15.6471 7.74674 15.49 8.00594 15.3831C8.26514 15.2761 8.54292 15.2214 8.82333 15.2222H15.9354C16.358 15.2221 16.7711 15.3475 17.1224 15.5825C17.4736 15.8175 17.7471 16.1515 17.9083 16.5422Z" fill="#787878" />
		</g>
	</g>
	<defs>
		<clipPath id="clip0">
			<rect width="22.7586" height="22.7586" fill="white" transform="translate(0.137695 0.972656)" />
		</clipPath>
		<clipPath id="clip1">
			<rect width="22.7586" height="22.7586" fill="white" transform="translate(0.137924 0.973877)" />
		</clipPath>
	</defs>
</svg>
