<svg width="20" height="16" viewBox="0 0 20 16" fill="none" xmlns="http://www.w3.org/2000/svg">
<path d="M11.7663 9.76661C11.5375 10.0122 11.2615 10.2092 10.9548 10.3459C10.6481 10.4825 10.3171 10.556 9.98142 10.5619C9.64574 10.5678 9.31231 10.5061 9.00102 10.3803C8.68972 10.2546 8.40694 10.0675 8.16955 9.83007C7.93215 9.59267 7.745 9.30989 7.61926 8.9986C7.49353 8.6873 7.43178 8.35387 7.4377 8.0182C7.44362 7.68252 7.5171 7.35148 7.65374 7.04481C7.79038 6.73815 7.98738 6.46215 8.23301 6.23327M14.9497 12.9499C13.5252 14.0358 11.7906 14.6373 9.99967 14.6666C4.16634 14.6666 0.833008 7.99994 0.833008 7.99994C1.86958 6.06819 3.30729 4.38045 5.04967 3.04994L14.9497 12.9499ZM8.24967 1.53327C8.82328 1.39901 9.41056 1.33189 9.99967 1.33327C15.833 1.33327 19.1663 7.99994 19.1663 7.99994C18.6605 8.94628 18.0572 9.83722 17.3663 10.6583L8.24967 1.53327Z" stroke="#25282B" stroke-width="1.3" stroke-linecap="round" stroke-linejoin="round"/>
</svg>
