<svg width="12" viewBox="0 0 12 14" fill="none" xmlns="http://www.w3.org/2000/svg">
	<path d="M2.00916 13.3248C2.02516 13.7024 2.33556 14 2.71316 14H9.29076C9.66835 14 9.98036 13.7024 9.99475 13.3248L10.4652 3.408H1.53876L2.00916 13.3248ZM7.48916 5.872C7.48916 5.7136 7.61716 5.5856 7.77556 5.5856H8.23316C8.39156 5.5856 8.51956 5.7152 8.51956 5.872V11.5376C8.51956 11.696 8.38996 11.824 8.23316 11.824H7.77556C7.61716 11.824 7.48916 11.696 7.48916 11.5376V5.872ZM5.48756 5.872C5.48756 5.7136 5.61556 5.5856 5.77396 5.5856H6.23156C6.38996 5.5856 6.51796 5.7152 6.51796 5.872V11.5376C6.51796 11.696 6.38996 11.824 6.23156 11.824H5.77396C5.61556 11.824 5.48756 11.696 5.48756 11.5376V5.872ZM3.48436 5.872C3.48436 5.7136 3.61236 5.5856 3.76916 5.5856H4.22676C4.38516 5.5856 4.51316 5.7152 4.51316 5.872V11.5376C4.51316 11.696 4.38356 11.824 4.22676 11.824H3.76916C3.61076 11.824 3.48436 11.696 3.48436 11.5376V5.872ZM10.7772 0.7216H7.74356V0.1472C7.74356 0.0656 7.67796 0 7.59636 0H4.40916C4.32756 0 4.26196 0.0656 4.26196 0.1472V0.7216H1.22676C0.983556 0.7216 0.785156 0.9184 0.785156 1.1632V2.552H11.2188V1.1632C11.2188 0.92 11.022 0.7216 10.7772 0.7216Z" fill="#FF6760" />
</svg>
