<svg width="23" height="23" viewBox="0 0 23 23" fill="none" xmlns="http://www.w3.org/2000/svg">
<path fill-rule="evenodd" clip-rule="evenodd" d="M11.5003 0.0424805C5.1722 0.0424805 0.0419922 5.17269 0.0419922 11.5008C0.0419922 17.8289 5.1722 22.9591 11.5003 22.9591C17.8284 22.9591 22.9587 17.8289 22.9587 11.5008C22.9587 5.17269 17.8284 0.0424805 11.5003 0.0424805ZM12.542 15.6675C12.542 15.9437 12.4322 16.2087 12.2369 16.404C12.0415 16.5994 11.7766 16.7091 11.5003 16.7091C11.2241 16.7091 10.9591 16.5994 10.7638 16.404C10.5684 16.2087 10.4587 15.9437 10.4587 15.6675V12.5425H7.33366C7.05739 12.5425 6.79244 12.4327 6.59709 12.2374C6.40174 12.042 6.29199 11.7771 6.29199 11.5008C6.29199 11.2245 6.40174 10.9596 6.59709 10.7642C6.79244 10.5689 7.05739 10.4591 7.33366 10.4591H10.4587V7.33415C10.4587 7.05788 10.5684 6.79293 10.7638 6.59758C10.9591 6.40223 11.2241 6.29248 11.5003 6.29248C11.7766 6.29248 12.0415 6.40223 12.2369 6.59758C12.4322 6.79293 12.542 7.05788 12.542 7.33415V10.4591H15.667C15.9433 10.4591 16.2082 10.5689 16.4036 10.7642C16.5989 10.9596 16.7087 11.2245 16.7087 11.5008C16.7087 11.7771 16.5989 12.042 16.4036 12.2374C16.2082 12.4327 15.9433 12.5425 15.667 12.5425H12.542V15.6675Z" fill="white"/>
</svg>
