<svg width="24" viewBox="0 0 24 24" fill="none" xmlns="http://www.w3.org/2000/svg">
	<path d="M14.4 7.7999V2.3999H9.00001C8.52262 2.3999 8.06478 2.58954 7.72721 2.92711C7.38965 3.26468 7.20001 3.72251 7.20001 4.1999V9.8039C7.57561 9.6719 7.98001 9.5999 8.40001 9.5999C9.09495 9.59992 9.77504 9.80108 10.3582 10.1791C10.9413 10.5571 11.4026 11.0958 11.6863 11.7302C11.97 12.3646 12.064 13.0676 11.957 13.7543C11.85 14.4409 11.5465 15.0819 11.0832 15.5999H11.4C12.1957 15.5999 12.9587 15.916 13.5213 16.4786C14.0839 17.0412 14.4 17.8043 14.4 18.5999C14.4 19.7459 14.076 20.7647 13.5 21.5999H19.8C20.2774 21.5999 20.7352 21.4103 21.0728 21.0727C21.4104 20.7351 21.6 20.2773 21.6 19.7999V9.5999H16.2C15.7226 9.5999 15.2648 9.41026 14.9272 9.07269C14.5896 8.73513 14.4 8.27729 14.4 7.7999ZM15.6 7.7999V2.6999L21.3 8.3999H16.2C16.0409 8.3999 15.8883 8.33669 15.7757 8.22417C15.6632 8.11164 15.6 7.95903 15.6 7.7999ZM10.8 13.1999C10.8103 12.8785 10.756 12.5583 10.6401 12.2583C10.5243 11.9584 10.3494 11.6847 10.1258 11.4537C9.90211 11.2226 9.63433 11.0389 9.33829 10.9133C9.04225 10.7878 8.724 10.723 8.40244 10.7228C8.08089 10.7227 7.76257 10.7871 7.46641 10.9124C7.17025 11.0376 6.90227 11.2211 6.67841 11.4519C6.45454 11.6828 6.27934 11.9562 6.16321 12.2561C6.04708 12.556 5.9924 12.8761 6.00241 13.1975C6.0218 13.8206 6.28287 14.4117 6.73037 14.8457C7.17786 15.2797 7.77666 15.5225 8.40004 15.5228C9.02342 15.5231 9.62247 15.2809 10.0704 14.8473C10.5183 14.4138 10.78 13.823 10.8 13.1999ZM3.60001 18.5999C3.60001 18.8063 3.61201 19.0067 3.63841 19.1999C3.75691 20.1996 4.26591 21.112 5.05441 21.7379C5.94361 22.4519 7.13641 22.7999 8.40001 22.7999C9.66361 22.7999 10.8564 22.4519 11.7456 21.7379C12.648 21.0119 13.2 19.9391 13.2 18.5999C13.2 18.1225 13.0104 17.6647 12.6728 17.3271C12.3352 16.9895 11.8774 16.7999 11.4 16.7999H5.40001C4.92262 16.7999 4.46478 16.9895 4.12721 17.3271C3.78965 17.6647 3.60001 18.1225 3.60001 18.5999Z" fill="#787878" />
</svg>
