<svg width="23" viewBox="0 0 23 23" fill="none" xmlns="http://www.w3.org/2000/svg">
	<g clip-path="url(#clip0)">
		<path d="M10.8 2.3999C9.52696 2.3999 8.30606 2.90562 7.40589 3.80579C6.50571 4.70596 6 5.92686 6 7.1999C6 8.47294 6.50571 9.69384 7.40589 10.594C8.30606 11.4942 9.52696 11.9999 10.8 11.9999C12.073 11.9999 13.2939 11.4942 14.1941 10.594C15.0943 9.69384 15.6 8.47294 15.6 7.1999C15.6 5.92686 15.0943 4.70596 14.1941 3.80579C13.2939 2.90562 12.073 2.3999 10.8 2.3999Z" fill="#787878" />
		<path d="M4.81082 13.2C4.49479 13.1987 4.18161 13.2598 3.88925 13.3799C3.5969 13.4999 3.33111 13.6765 3.10714 13.8994C2.88316 14.1224 2.70541 14.3874 2.58406 14.6792C2.46272 14.971 2.40018 15.2839 2.40002 15.6C2.40002 17.6292 3.39962 19.1592 4.96202 20.1564C6.50042 21.1368 8.57402 21.6 10.8 21.6C11.292 21.6 11.7792 21.5772 12.252 21.5316C11.3099 20.3609 10.7975 18.9027 10.8 17.4C10.8 15.804 11.3664 14.34 12.3084 13.2H4.81202H4.81082Z" fill="#787878" />
		<path d="M17.4 22.8C18.8322 22.8 20.2057 22.2311 21.2184 21.2184C22.2311 20.2057 22.8 18.8322 22.8 17.4C22.8 15.9678 22.2311 14.5943 21.2184 13.5816C20.2057 12.5689 18.8322 12 17.4 12C15.9678 12 14.5943 12.5689 13.5816 13.5816C12.5689 14.5943 12 15.9678 12 17.4C12 18.8322 12.5689 20.2057 13.5816 21.2184C14.5943 22.2311 15.9678 22.8 17.4 22.8ZM17.4 14.4C17.5591 14.4 17.7117 14.4632 17.8243 14.5757C17.9368 14.6883 18 14.8409 18 15V16.8H19.8C19.9591 16.8 20.1117 16.8632 20.2243 16.9757C20.3368 17.0883 20.4 17.2409 20.4 17.4C20.4 17.5591 20.3368 17.7117 20.2243 17.8243C20.1117 17.9368 19.9591 18 19.8 18H18V19.8C18 19.9591 17.9368 20.1117 17.8243 20.2243C17.7117 20.3368 17.5591 20.4 17.4 20.4C17.2409 20.4 17.0883 20.3368 16.9757 20.2243C16.8632 20.1117 16.8 19.9591 16.8 19.8V18H15C14.8409 18 14.6883 17.9368 14.5757 17.8243C14.4632 17.7117 14.4 17.5591 14.4 17.4C14.4 17.2409 14.4632 17.0883 14.5757 16.9757C14.6883 16.8632 14.8409 16.8 15 16.8H16.8V15C16.8 14.8409 16.8632 14.6883 16.9757 14.5757C17.0883 14.4632 17.2409 14.4 17.4 14.4Z" fill="#787878" />
	</g>
	<defs>
		<clipPath id="clip0">
			<rect width="22.7586" height="22.7586" fill="white" transform="translate(0.137695 0.144531)" />
		</clipPath>
	</defs>
</svg>
