<svg width="25" height="25" viewBox="0 0 25 25" fill="none" xmlns="http://www.w3.org/2000/svg">
<path d="M23.9729 12.2617C23.9392 12.1859 23.1266 10.3835 21.3128 8.56934C19.6308 6.88721 16.7363 4.88184 12.5 4.88184C8.26366 4.88184 5.36923 6.88711 3.6872 8.56943C1.87333 10.3835 1.06073 12.1859 1.02704 12.2618C0.993759 12.3367 0.976562 12.4178 0.976562 12.4998C0.976563 12.5817 0.993759 12.6628 1.02704 12.7377C1.06073 12.8135 1.87343 14.6156 3.6872 16.4293C5.36942 18.1112 8.26366 20.1161 12.5 20.1161C16.7363 20.1161 19.6307 18.1112 21.3127 16.4293C23.1266 14.6156 23.9392 12.8135 23.9728 12.7377C24.0062 12.6628 24.0234 12.5817 24.0234 12.4997C24.0234 12.4177 24.0062 12.3366 23.9729 12.2617V12.2617ZM12.5 18.9442C9.43573 18.9442 6.75975 17.8294 4.54608 15.6308C3.6179 14.7088 2.8325 13.6535 2.21581 12.4997C2.8325 11.3457 3.61794 10.2901 4.54618 9.36787C6.75975 7.16865 9.43583 6.05352 12.5 6.05352C15.5641 6.05352 18.2402 7.16855 20.4538 9.36768C21.382 10.2899 22.1674 11.3454 22.7841 12.4994C22.1622 13.6908 19.0468 18.9441 12.5 18.9441V18.9442ZM12.5 8.00752C11.6115 8.00752 10.743 8.27098 10.0043 8.76459C9.26553 9.2582 8.68975 9.95978 8.34975 10.7806C8.00975 11.6015 7.92079 12.5047 8.09412 13.3761C8.26745 14.2475 8.69529 15.0479 9.32353 15.6762C9.95178 16.3044 10.7522 16.7322 11.6236 16.9056C12.495 17.0789 13.3982 16.99 14.2191 16.6499C15.0399 16.3099 15.7415 15.7342 16.2351 14.9954C16.7287 14.2567 16.9922 13.3882 16.9922 12.4997C16.9908 11.3087 16.5171 10.1669 15.675 9.32474C14.8328 8.48258 13.691 8.00886 12.5 8.00752V8.00752ZM12.5 15.82C11.8433 15.82 11.2013 15.6253 10.6553 15.2604C10.1093 14.8956 9.68373 14.377 9.43242 13.7703C9.18111 13.1636 9.11536 12.496 9.24347 11.8519C9.37159 11.2079 9.68782 10.6162 10.1522 10.1519C10.6165 9.68754 11.2082 9.37131 11.8522 9.24319C12.4963 9.11508 13.1639 9.18083 13.7706 9.43214C14.3773 9.68344 14.8959 10.109 15.2607 10.655C15.6256 11.2011 15.8203 11.843 15.8203 12.4997C15.8193 13.38 15.4692 14.224 14.8467 14.8464C14.2243 15.4689 13.3803 15.819 12.5 15.82V15.82Z" fill="#A0A4A8"/>
</svg>
